<?xml version="1.0" encoding="iso-8859-1"?>
<!-- Generator: Adobe Illustrator 19.0.0, SVG Export Plug-In . SVG Version: 6.00 Build 0)  -->
<svg version="1.1" id="Layer_1" xmlns="http://www.w3.org/2000/svg" xmlns:xlink="http://www.w3.org/1999/xlink" x="0px" y="0px"
	 viewBox="0 0 496.4 496.4" style="enable-background:new 0 0 496.4 496.4;" xml:space="preserve">
<path style="fill:#DB9C2E;" d="M251.688,260.512c50.736,0,92.576,7.832,99.424,17.984c0.624-1.736,1.08-3.504,1.08-5.296
	c0-21.016-45-38.048-100.496-38.048S151.184,252.184,151.184,273.2c0,1.8,0.456,3.56,1.096,5.296
	C159.104,268.336,200.952,260.512,251.688,260.512z"/>
<path style="fill:#C68722;" d="M155.544,275.448c12.544-15.592,50.832-26.952,96.144-26.952c45.328,0,83.608,11.36,96.144,26.952
	c1.424,1,2.576,2,3.28,3.048c0.624-1.736,1.08-3.504,1.08-5.296c0-21.016-45-38.048-100.496-38.048S151.184,252.184,151.184,273.2
	c0,1.8,0.456,3.56,1.096,5.296C152.984,277.448,154.136,276.448,155.544,275.448z"/>
<path style="fill:#4B377C;" d="M381.64,392.4c-0.016,0-0.064,0.048-0.096-0.536c0.016-0.216,0.064,0.536,0.08,0.536h-0.096
	c-3.704-104-60.112-179.344-129.216-179.344c-69.128,0-125.536,75.344-129.224,179.344h-0.112c0,0,0.048-0.672,0.064-0.424
	c-0.008,0.552-0.04,0.424-0.056,0.424h0.216c2.296,24,27.92,88,32.344,104h193.512c4.408-16,30.032-80,32.328-104H381.64z"/>
<path style="fill:#7C66B2;" d="M389.984,22.176c0-12.392-11.192-21.776-25.032-21.776h-38.936
	c-6.272,48-38.672,80.832-77.816,80.832c-39.16,0-71.56-32.832-77.832-80.832h-30.704c-13.84,0-25.032,9.384-25.032,21.776
	L89.96,66.728C89.96,79.12,101.144,89,115.008,89l37.312,7.92c13.832,23.048,26,34.032,26,69.832c0,44.296-10.376,85-27.736,117.296
	c23.704,44.096,60.44,72.44,101.72,72.44c41.264,0,78.016-28.36,101.72-72.456c-17.376-32.296-27.752-73.024-27.752-117.32
	c0-35.8,12.168-46.832,26-69.872l29.128-8c13.84,0,25.032-9.712,25.032-22.104L389.984,22.176z"/>
<path style="fill:#684E9B;" d="M389.984,21.512c0-12.392-11.184-6.44-25.032-6.44l-38.936-8
	c-6.272,45.848-38.672,80.832-77.816,80.832c-39.16,0-71.56-34.976-77.832-80.832l-30.704,8c-13.84,0-25.032-5.952-25.032,6.44
	L89.968,66.4c0,12.392,11.184,22.44,25.048,22.44l37.312,8c13.832,23.048,26,34.08,26,69.872c0,44.296-10.376,85.016-27.736,117.312
	c23.704,44.096,60.44,72.456,101.72,72.456c41.264,0,78.016-28.36,101.72-72.456c-17.376-32.296-27.752-73.016-27.752-117.312
	c0-35.8,12.168-46.832,26-69.872l29.128-8c13.84,0,25.032-10.048,25.032-22.44L389.984,21.512z"/>
<path style="fill:#DB9C2E;" d="M248.2,29.88c-26.84,0-48.92-13.056-52-29.88c-0.232,1.32-0.392,2.656-0.392,4.016
	c0,18.72,23.456,33.888,52.392,33.888s52.392-15.168,52.392-33.888c0-1.36-0.168-2.696-0.408-4.016
	C297.104,16.824,275.032,29.88,248.2,29.88z"/>
<path style="fill:#C68722;" d="M248.2,37.88c-26.84,0-48.92-21.056-52-37.88c-0.232,1.32-0.392,2.656-0.392,4.016
	c0,18.72,23.456,33.888,52.392,33.888s52.392-15.168,52.392-33.888c0-1.36-0.168-2.696-0.408-4.016
	C297.104,16.824,275.032,37.88,248.2,37.88z"/>
<g>
	<path style="fill:#564289;" d="M381.744,88.808c11.328-0.144,20.72-7.032,23.64-16.36C398.592,78.264,390.64,83.752,381.744,88.808
		z"/>
	<path style="fill:#564289;" d="M91,72.448c2.92,9.328,12.312,16.2,23.64,16.36C105.728,83.752,97.792,78.264,91,72.448z"/>
	<path style="fill:#564289;" d="M347.688,88.216c-28.72,10.232-62.84,56.456-99.488,56.456c-32.296,0-62.624-44.824-89.032-52.96
		c10.768,16.632,19.16,45.288,19.16,75.008c0,44.296-10.376,85.016-27.736,117.312c23.704,44.096,60.44,72.456,101.72,72.456
		c41.264,0,78.016-28.36,101.72-72.456c-17.376-32.296-27.752-73.016-27.752-117.312C326.28,134.952,335.856,106.68,347.688,88.216z
		"/>
</g>
<circle style="fill:#DB9C2E;" cx="248.192" cy="34.744" r="13.24"/>
<path style="fill:#C68722;" d="M261.432,34.744c0,7.312-5.92,13.248-13.232,13.248s-13.248-5.936-13.248-13.248
	s5.936-5.248,13.248-5.248C255.512,29.496,261.432,27.432,261.432,34.744z"/>
<path style="fill:#B77616;" d="M261.432,34.744c0,7.312-5.92,13.248-13.232,13.248s-13.248-5.936-13.248-13.248
	s5.936,2.752,13.248,2.752C255.512,37.496,261.432,27.432,261.432,34.744z"/>
<path style="fill:#DB9C2E;" d="M251.704,288.632c-50.736,0-92.576-7.832-99.424-17.984c-0.624,1.736-1.096,3.504-1.096,5.296
	c0,21.016,45.016,38.048,100.512,38.048c55.488,0,100.504-17.032,100.504-38.048c0-1.8-0.472-3.56-1.096-5.296
	C344.264,280.808,302.432,288.632,251.704,288.632z"/>
<path style="fill:#C68722;" d="M347.84,273.696c-12.544,15.6-50.832,26.96-96.144,26.96c-45.328,0-83.608-11.36-96.144-26.96
	c-1.424-0.992-2.576-2-3.28-3.048c-0.624,1.736-1.096,3.504-1.096,5.296c0,21.016,45.016,38.048,100.512,38.048
	c55.496,0,100.512-17.032,100.512-38.048c0-1.8-0.472-3.56-1.096-5.296C350.4,271.696,349.248,272.704,347.84,273.696z"/>
<g>
</g>
<g>
</g>
<g>
</g>
<g>
</g>
<g>
</g>
<g>
</g>
<g>
</g>
<g>
</g>
<g>
</g>
<g>
</g>
<g>
</g>
<g>
</g>
<g>
</g>
<g>
</g>
<g>
</g>
</svg>
