<?xml version="1.0" encoding="iso-8859-1"?>
<!-- Generator: Adobe Illustrator 19.0.0, SVG Export Plug-In . SVG Version: 6.00 Build 0)  -->
<svg version="1.1" id="Layer_1" xmlns="http://www.w3.org/2000/svg" xmlns:xlink="http://www.w3.org/1999/xlink" x="0px" y="0px"
	 viewBox="0 0 498.4 498.4" style="enable-background:new 0 0 498.4 498.4;" xml:space="preserve">
<path style="fill:#2F423F;" d="M393.2,42.4h-44L249.2,404l-100-361.6h-44c-47.2,0-88,39.2-88,85.6v288c0,47.2,40.8,82.4,88,82.4h288
	c47.2,0,88-35.2,88-81.6v-288C481.2,81.6,440.4,42.4,393.2,42.4z"/>
<polygon style="fill:#EAEAEA;" points="351.6,34.4 249.2,404.8 146.8,34.4 249.2,20 "/>
<rect x="153.2" y="98.4" style="fill:#D6D6D6;" width="176" height="112"/>
<polygon style="fill:#50BB75;" points="237.2,114.4 206.8,323.2 249.2,410.4 291.6,322.4 261.2,114.4 "/>
<polygon style="fill:#0AA06E;" points="261.2,114.4 249.2,114.4 249.2,410.4 249.2,411.2 291.6,323.2 "/>
<g>
	<polygon style="fill:#5E6664;" points="153.2,41.6 249.2,409.6 79.6,149.6 126,80 85.2,60 90.8,43.2 150,24.8 	"/>
	<polygon style="fill:#5E6664;" points="345.2,41.6 249.2,409.6 418.8,149.6 372.4,80 413.2,60 407.6,43.2 348.4,24.8 	"/>
</g>
<g>
	<polygon style="fill:#FFFFFF;" points="213.2,12 139.6,22.4 166.8,122.4 202.8,199.2 246.8,113.6 	"/>
	<polygon style="fill:#FFFFFF;" points="285.2,12 358.8,22.4 331.6,122.4 295.6,199.2 251.6,113.6 	"/>
</g>
<path style="fill:#A8A8A8;" d="M340.4,33.6c0,28-40.8,100-91.2,100s-91.2-72-91.2-100S198.8,0,249.2,0S340.4,4.8,340.4,33.6z"/>
<path style="fill:#8C8C8C;" d="M249.2,22.4c44.8,0,82.4,4,89.6,21.6c0.8-4,1.6-7.2,1.6-10.4c0-28-40.8-33.6-91.2-33.6
	S158,4.8,158,33.6c0,3.2,0.8,6.4,1.6,10.4C166.8,26.4,204.4,22.4,249.2,22.4z"/>
<circle style="fill:#FCA12A;" cx="249.2" cy="449.6" r="21.6"/>
<path style="fill:#FF8A15;" d="M264.4,433.6c8.8,8.8,8.8,22.4,0,31.2c-8.8,8.8-22.4,8.8-31.2,0"/>
<rect x="353.2" y="306.4" style="fill:#FFFFFF;" width="96" height="16"/>
<g>
</g>
<g>
</g>
<g>
</g>
<g>
</g>
<g>
</g>
<g>
</g>
<g>
</g>
<g>
</g>
<g>
</g>
<g>
</g>
<g>
</g>
<g>
</g>
<g>
</g>
<g>
</g>
<g>
</g>
</svg>
