<?xml version="1.0" encoding="UTF-8" standalone="no"?>
<svg
   xmlns:dc="http://purl.org/dc/elements/1.1/"
   xmlns:cc="http://creativecommons.org/ns#"
   xmlns:rdf="http://www.w3.org/1999/02/22-rdf-syntax-ns#"
   xmlns:svg="http://www.w3.org/2000/svg"
   xmlns="http://www.w3.org/2000/svg"
   xmlns:sodipodi="http://sodipodi.sourceforge.net/DTD/sodipodi-0.dtd"
   xmlns:inkscape="http://www.inkscape.org/namespaces/inkscape"
   enable-background="new 0 0 75 75"
   height="512"
   version="1.1"
   viewBox="0 0 512 512"
   width="512"
   xml:space="preserve"
   id="svg3643"
   inkscape:version="0.91 r13725"
   sodipodi:docname="icon.svg"
   inkscape:export-filename="/home/willisena/workspace/github/whats-size-mobile/resources/icon.png"
   inkscape:export-xdpi="89.648438"
   inkscape:export-ydpi="89.648438"><metadata
     id="metadata3732"><rdf:RDF><cc:Work
         rdf:about=""><dc:format>image/svg+xml</dc:format><dc:type
           rdf:resource="http://purl.org/dc/dcmitype/StillImage" /><dc:title></dc:title></cc:Work></rdf:RDF></metadata><defs
     id="defs3730"><filter
       style="color-interpolation-filters:sRGB"
       inkscape:label="Drop Shadow"
       id="filter5028"><feFlood
         flood-opacity="0.498039"
         flood-color="rgb(0,0,0)"
         result="flood"
         id="feFlood5030" /><feComposite
         in="flood"
         in2="SourceGraphic"
         operator="in"
         result="composite1"
         id="feComposite5032" /><feGaussianBlur
         in="composite1"
         stdDeviation="0.4"
         result="blur"
         id="feGaussianBlur5034" /><feOffset
         dx="1"
         dy="1"
         result="offset"
         id="feOffset5036" /><feComposite
         in="SourceGraphic"
         in2="offset"
         operator="over"
         result="composite2"
         id="feComposite5038" /></filter></defs><sodipodi:namedview
     pagecolor="#ffffff"
     bordercolor="#666666"
     borderopacity="1"
     objecttolerance="10"
     gridtolerance="10"
     guidetolerance="10"
     inkscape:pageopacity="0"
     inkscape:pageshadow="2"
     inkscape:window-width="1366"
     inkscape:window-height="715"
     id="namedview3728"
     showgrid="false"
     inkscape:zoom="0.39333333"
     inkscape:cx="-119.01525"
     inkscape:cy="55.263585"
     inkscape:window-x="0"
     inkscape:window-y="0"
     inkscape:window-maximized="1"
     inkscape:current-layer="svg3643"
     units="px" /><path
     style="opacity:0.97000002;fill:#20b2aa;fill-opacity:1;stroke:#000000;stroke-width:2.27447915;stroke-miterlimit:4;stroke-dasharray:none;stroke-opacity:1"
     d="m 156.55053,54.19052 c -14.12284,1.37466 -31.23971,-5.14232 -40.54068,9.59827 -20.92448,19.89386 -44.202757,38.32789 -63.73191,59.12775 7.539109,33.22749 16.016577,66.79868 27.9662,98.52402 15.069466,-4.2372 26.9631,-18.54607 40.37425,-26.85336 6.44251,1.21786 1.08767,26.60382 2.94212,37.22082 0.32417,76.94958 0.64934,153.89928 0.97436,230.84888 26.89564,3.3807 56.29942,0.4854 84.16069,1.4501 61.122,0 122.24401,0 183.366,0 3.27915,-27.808 0.47105,-58.2237 1.40662,-87.0358 0.36587,-61.3872 -0.80939,-124.3693 1.38912,-184.83682 14.99068,9.40592 28.12615,22.75996 43.85389,30.43491 11.88136,-31.57358 19.64882,-65.49344 29.85334,-97.96379 -23.60089,-24.80249 -50.58364,-47.61547 -76.1404,-70.59629 -20.21217,0.64375 -41.16105,-1.22361 -60.93416,0.91709 -9.89092,34.09692 -45.95204,54.57245 -79.15019,49.65729 -28.49728,-0.89188 -56.0876,-21.10889 -64.96615,-49.70701 -9.6486,-2.00919 -20.74771,-0.22929 -30.8231,-0.78637 z"
     id="path6695"
     inkscape:connector-curvature="0" /><path
     id="t-shirt_1_"
     d="M 487.63712,96.79471 412.91061,28.9356 c -5.30558,-4.81801 -11.91141,-7.43061 -18.68163,-7.43061 l -269.01543,0 c -6.78517,0 -13.37605,2.6126 -18.68163,7.43061 L 31.805417,96.79471 c -9.77423,8.88958 -13.630113,23.75073 -9.669612,37.23768 l 29.890598,101.78875 c 2.944225,10.0262 9.848956,17.93176 18.666685,21.35866 3.138508,1.2215 6.426474,1.8321 9.68456,1.8321 5.200959,0 10.357085,-1.5437 14.945294,-4.5465 l 0,208.124 c 0,18.7292 13.390988,33.9296 29.890608,33.9296 l 269.01543,0 c 16.49962,0 29.8906,-15.2004 29.8906,-33.9296 l 0,-208.124 c 4.58821,3.0028 9.74435,4.5465 14.94531,4.5465 3.27302,0 6.54603,-0.6106 9.68455,-1.8321 8.81774,-3.4269 15.70751,-11.33246 18.65174,-21.35866 l 29.89061,-101.78875 c 3.97544,-13.48695 0.11959,-28.3481 -9.65467,-37.23768 z M 315.82592,55.43454 c -8.26474,19.69617 -30.15961,33.92963 -56.10466,33.92963 -25.94504,0 -47.85485,-14.23346 -56.10466,-33.92963 l 112.20932,0 z m 123.23897,169.64785 -44.83591,-33.92955 0,271.43656 -269.01543,0 0,-271.43656 -44.835902,33.92955 -29.890607,-101.78866 74.726509,-67.85919 62.42652,0 c 8.32453,29.21343 37.30348,50.89437 72.08119,50.89437 34.76277,0 63.75667,-21.68094 72.06625,-50.89437 l 62.44147,0 74.72651,67.85919 -29.8906,101.78866 z"
     inkscape:connector-curvature="0"
     style="clip-rule:evenodd;fill:#000000;fill-rule:evenodd" /><g
     id="g3926"
     transform="matrix(0.44631797,0,0,0.43352807,7.0080003,472.8604)"><g
       id="g3928"><g
         id="g3930"><g
           id="g3932" /></g><g
         id="g3934" /></g></g><path
     inkscape:connector-curvature="0"
     id="path4074"
     d=""
     style="opacity:0.97000002;fill:#7fff00;fill-opacity:1;stroke:#000000;stroke-width:0.22471614;stroke-miterlimit:4;stroke-dasharray:none;stroke-opacity:1" /><g
     transform="matrix(4.0985807,0,0,4.3822639,-172.99172,484.7863)"
     id="Layer_2" /><path
     style="fill:#000000;fill-opacity:1;stroke:#000000;stroke-width:7.37191439;stroke-opacity:1"
     d="m 244.82191,223.57031 c -5.63009,-0.11819 -11.2634,1.76454 -15.66955,6.01026 L 12.76679,438.0876 c -8.8122932,8.4915 -8.8122932,21.7111 0,30.2025 l 30.347052,29.245 c 3.916575,3.7739 9.794682,6.6023 15.669556,6.6023 5.874874,0 11.752966,-1.8849 15.669539,-6.6023 L 290.83851,289.0154 c 3.91657,-3.774 6.86065,-9.434 6.86065,-15.0949 0,-5.661 -2.94408,-11.321 -6.86065,-15.095 l -30.34705,-29.24493 c -4.40615,-3.77397 -10.03947,-5.8923 -15.66955,-6.01026 z m -2.94028,11.66774 c 1.9583,0 3.92132,0.94649 4.90047,1.88998 l 33.28733,32.07987 c 0.97914,0.9435 1.96019,2.8256 1.96019,4.7125 0,0.9311 -0.0158,1.864 -0.25108,2.7973 1.13844,-0.4822 2.28459,-0.939 3.38252,-1.512 2.53772,-1.3245 -0.58922,0.1607 2.16338,-1.0962 0.38142,-0.1773 1.21668,-0.5508 2.01995,-0.7438 0.19676,-0.5847 0.29715,-0.4988 0.35856,-0.063 0.81748,-0.1143 1.57226,0.024 1.80481,0.9575 0.18759,0.7525 -0.59782,1.4177 -0.89643,2.1294 -0.34996,0.8341 -0.51304,0.6185 -0.62153,0.079 -0.15771,0.032 -0.31514,0.071 -0.46612,0.1261 -0.3463,0.1331 -0.67771,0.2994 -1.01595,0.453 -1.93481,0.8543 0.29128,-0.1575 -2.09166,1.0837 -1.79361,0.934 -3.68997,1.6287 -5.52199,2.4696 -1.32685,0.643 -1.68578,0.798 -2.97614,1.5246 -0.41345,0.2332 -0.82215,0.4893 -1.23109,0.7304 L 64.652038,487.1524 c -2.937437,2.8304 -7.831649,2.8304 -10.769076,0 L 23.535871,457.9076 c -2.937431,-2.8305 -2.937431,-7.552 0,-10.3825 l 16.637689,-16.04 9.800936,9.4375 c 0.97915,0.9435 2.93024,1.89 4.888521,1.89 1.958303,0 3.921312,-0.9465 4.900463,-1.89 2.93743,-2.8305 2.93743,-7.552 0,-10.3825 l -9.788984,-9.4249 28.38686,-27.3674 9.800943,9.4374 c 0.979136,0.9435 2.930228,1.89 4.888515,1.89 1.958294,0 3.921324,-0.9465 4.900467,-1.89 2.937429,-2.8305 2.937429,-7.552 0,-10.3825 l -9.788982,-9.4375 28.386861,-27.3549 9.78899,9.4375 c 0.97913,0.9435 2.94216,1.8774 4.90046,1.8774 1.95829,0 3.92134,-0.9338 4.90047,-1.8774 2.93744,-2.8305 2.93744,-7.552 0,-10.3825 l -9.80093,-9.4375 28.39881,-27.3549 9.78898,9.4249 c 0.97915,0.9435 2.94218,1.89 4.90047,1.89 1.95828,0 3.92132,-0.9465 4.90047,-1.89 2.93744,-2.8305 2.93744,-7.5395 0,-10.3699 l -9.80094,-9.4375 28.39881,-27.3675 9.78899,9.4376 c 0.97913,0.9434 2.94219,1.8899 4.90047,1.8899 1.9583,0 3.90937,-0.9465 4.88852,-1.8899 2.93741,-2.8306 2.93741,-7.5395 0,-10.37 l -9.78899,-9.4375 34.27937,-33.02497 c 0.97915,-0.94349 2.93024,-1.88998 4.88852,-1.88998 z m 47.8214,38.06495 c -0.13564,0.016 -0.2212,0.032 -0.35856,0.063 -0.0236,0.071 -0.033,0.063 -0.0595,0.1513 -0.1916,0.6563 -0.82242,1.3258 -0.58563,1.9656 0.17878,0.483 0.76506,0.5839 1.26695,0.7683 -0.13156,-0.8699 -0.16366,-2.2429 -0.26297,-2.9485 z m -30.81319,-9.7525 c -2.81504,0 -5.75146,0.9355 -8.19932,2.8225 -3.91657,3.7739 -3.91657,10.3775 0,15.0949 3.91658,3.774 10.77383,3.774 15.66955,0 3.91657,-3.774 3.91657,-10.3775 0,-15.0949 -1.95829,-1.887 -4.65519,-2.8225 -7.47023,-2.8225 z"
     id="path4036"
     inkscape:connector-curvature="0" /><path
     style="opacity:0.97000002;fill:#ffd700;fill-opacity:1;stroke:#000000;stroke-width:0.70597398;stroke-miterlimit:4;stroke-dasharray:none;stroke-opacity:1"
     d="m 241.64739,238.29845 c -7.60621,4.77908 -13.67915,12.03012 -20.43092,18.05785 -4.44536,4.7131 -9.89209,8.6835 -13.72821,13.8483 3.37172,4.7741 10.60049,8.396 9.56848,15.5603 0.0201,7.8383 -10.21935,11.6721 -15.49893,6.6186 -3.22112,-2.0563 -5.56769,-5.5548 -8.91715,-7.2217 -7.71982,6.9391 -15.24109,14.3298 -22.58966,21.764 -0.66295,3.0918 3.39612,4.838 4.84937,7.0956 4.12088,3.4871 6.07508,10.4849 1.9298,14.8213 -4.02593,5.2587 -11.62308,4.2252 -15.70975,-0.457 -2.36179,-1.9189 -5.82683,-7.2386 -8.88224,-3.5196 -7.05946,6.9179 -14.84678,13.3843 -21.1836,20.8876 3.35697,4.6174 10.53403,8.0247 9.69471,15.0591 0.26512,8.1424 -10.50627,12.3121 -15.86554,6.8904 -3.08216,-2.0659 -5.33087,-5.5221 -8.60829,-7.107 -7.77835,6.9032 -15.23663,14.5078 -22.762894,21.6904 -0.0093,3.4219 4.070302,5.3509 5.695615,8.0599 3.734429,3.3477 5.159889,9.6815 1.434079,13.6757 -3.708851,5.4107 -11.240739,4.517 -15.408943,0.2435 -2.562689,-1.6334 -4.988561,-6.2493 -8.339683,-4.8927 -7.428182,7.0367 -15.170857,13.972 -22.038645,21.4917 2.127089,4.8238 9.438531,7.4837 9.53045,13.8887 1.412512,8.3369 -9.235011,13.9876 -15.253154,8.8993 -3.3488,-2.1112 -5.68583,-5.8093 -9.091736,-7.6421 -5.609399,5.0025 -11.562225,10.1475 -16.130109,16.261 0.356899,3.916 4.838329,5.7948 6.936308,8.6742 9.255016,8.4358 17.654611,18.0786 27.641825,25.5397 4.874235,-0.3049 7.660337,-6.0162 11.439756,-8.6664 C 135.71983,414.606 201.61759,351.5043 267.10558,287.9468 c 1.71369,-2.2294 -1.43091,-3.0773 -2.8833,-1.8546 -5.91407,1.2035 -13.69451,1.5094 -17.00168,-4.9876 -4.57832,-6.932 -1.39955,-18.2295 7.06792,-19.5767 3.45369,-1.1271 7.24441,0.039 10.6012,-1.0434 0.0351,-3.7633 -5.04658,-5.6885 -7.06911,-8.6719 -5.14697,-4.53356 -9.60769,-10.442 -15.71797,-13.51107 l -0.13292,-0.0158 -0.3223,0.0158 z"
     id="path6662"
     inkscape:connector-curvature="0" /><path
     style="opacity:0.97000002;fill:#ffd700;fill-opacity:1;stroke:#000000;stroke-width:0.70597398;stroke-miterlimit:4;stroke-dasharray:none;stroke-opacity:1"
     d="m 272.1161,266.6569 c -2.42371,2.8307 1.27821,7.2562 -0.55188,10.5952 -0.70072,1.8799 -2.64634,6.8879 0.99511,5.4039 2.46983,-2.4847 6.52504,-4.9687 6.68249,-8.854 -1.56259,-2.7899 -3.60984,-5.8283 -6.44747,-7.2357 l -0.67815,0.091 z"
     id="path6668"
     inkscape:connector-curvature="0" /></svg>