<?xml version="1.0" encoding="iso-8859-1"?>
<!-- Generator: Adobe Illustrator 19.0.0, SVG Export Plug-In . SVG Version: 6.00 Build 0)  -->
<svg version="1.1" id="Layer_1" xmlns="http://www.w3.org/2000/svg" xmlns:xlink="http://www.w3.org/1999/xlink" x="0px" y="0px"
	 viewBox="0 0 495.328 495.328" style="enable-background:new 0 0 495.328 495.328;" xml:space="preserve">
<ellipse style="fill:#770808;" cx="246.328" cy="56.68" rx="106.496" ry="32.496"/>
<ellipse style="fill:#4C0505;" cx="246.328" cy="70.008" rx="106.496" ry="32.496"/>
<path style="fill:#B70D0D;" d="M461.08,386.192l34.248-10.424l-125.144-340.4l-57.392-4c-8.936,30.424-34.704,52.424-65.136,52.424
	c-30.416,0-56.192-22-65.136-52.424l-57.392,4L0,375.776L34.248,386.2l111.856-213.872c9.656,21.72,15.152,37.184,15.152,88.752
	c0,28.344-28.496,127.264-31.592,153.376c24.224,35.232,82.984,56.688,118,56.688c35.024,0,93.776-21.456,118-56.688
	c-3.104-26.112-31.592-125.032-31.592-153.376c0-51.56,5.496-67.032,15.152-88.752L461.08,386.192z"/>
<path style="fill:#DD1D1D;" d="M461.08,370.192l34.248,5.576l-125.144-340.4l-57.392-4c-8.936,30.424-34.704,68.424-65.136,68.424
	c-30.416,0-56.192-38-65.136-68.424l-57.392,4L0,375.776l34.248-5.576l111.856-245.872c9.656,21.72,23.152,85.184,23.152,136.752
	c0,28.344-36.496,127.264-39.592,153.376c24.224,35.232,82.984,16.688,118,16.688c35.024,0,93.776,18.544,118-16.688
	c-3.104-26.112-39.592-125.032-39.592-153.376c0-51.56,13.496-115.032,23.152-136.752L461.08,370.192z"/>
<rect x="155.662" y="141.861" transform="matrix(-0.7076 0.7066 -0.7066 -0.7076 385.3623 140.2588)" style="fill:#F9EC75;" width="16" height="16"/>
<polygon style="fill:#F9C430;" points="174.984,149.848 163.656,161.16 152.344,149.848 163.672,154.536 "/>
<rect x="197.661" y="141.864" transform="matrix(-0.7076 0.7066 -0.7066 -0.7076 457.0824 110.5867)" style="fill:#F9EC75;" width="16" height="16"/>
<polygon style="fill:#F9C430;" points="216.984,149.848 205.656,161.16 194.344,149.848 205.672,154.536 "/>
<rect x="239.66" y="141.866" transform="matrix(-0.7076 0.7066 -0.7066 -0.7076 528.8025 80.9145)" style="fill:#F9EC75;" width="16" height="16"/>
<polygon style="fill:#F9C430;" points="258.984,149.848 247.656,161.16 236.344,149.848 247.672,154.536 "/>
<rect x="281.665" y="141.832" transform="matrix(-0.7076 0.7066 -0.7066 -0.7076 600.5057 51.1741)" style="fill:#F9EC75;" width="16" height="16"/>
<polygon style="fill:#F9C430;" points="300.984,149.848 289.656,161.16 278.344,149.848 289.672,154.536 "/>
<rect x="323.659" y="141.864" transform="matrix(-0.7076 0.7066 -0.7066 -0.7076 672.2371 21.5566)" style="fill:#F9EC75;" width="16" height="16"/>
<g>
	<polygon style="fill:#F9C430;" points="342.984,149.848 331.656,161.16 320.344,149.848 331.672,154.536 	"/>
	<circle style="fill:#F9C430;" cx="159.664" cy="171.336" r="1.496"/>
	<circle style="fill:#F9C430;" cx="170.664" cy="171.336" r="1.504"/>
	<circle style="fill:#F9C430;" cx="181.664" cy="171.336" r="1.504"/>
	<circle style="fill:#F9C430;" cx="192.624" cy="171.336" r="1.504"/>
	<circle style="fill:#F9C430;" cx="203.664" cy="171.336" r="1.496"/>
	<circle style="fill:#F9C430;" cx="214.664" cy="171.336" r="1.504"/>
	<circle style="fill:#F9C430;" cx="225.664" cy="171.336" r="1.504"/>
	<circle style="fill:#F9C430;" cx="236.664" cy="171.336" r="1.504"/>
	<circle style="fill:#F9C430;" cx="247.664" cy="171.336" r="1.496"/>
	<circle style="fill:#F9C430;" cx="258.664" cy="171.336" r="1.504"/>
	<circle style="fill:#F9C430;" cx="269.664" cy="171.336" r="1.504"/>
	<circle style="fill:#F9C430;" cx="280.624" cy="171.336" r="1.504"/>
	<circle style="fill:#F9C430;" cx="291.664" cy="171.336" r="1.496"/>
	<circle style="fill:#F9C430;" cx="302.664" cy="171.336" r="1.504"/>
	<circle style="fill:#F9C430;" cx="313.664" cy="171.336" r="1.504"/>
	<circle style="fill:#F9C430;" cx="324.664" cy="171.336" r="1.504"/>
	<circle style="fill:#F9C430;" cx="335.664" cy="171.336" r="1.496"/>
	<circle style="fill:#F9C430;" cx="159.664" cy="130.336" r="1.496"/>
	<circle style="fill:#F9C430;" cx="170.664" cy="130.336" r="1.504"/>
	<circle style="fill:#F9C430;" cx="181.664" cy="130.336" r="1.504"/>
	<circle style="fill:#F9C430;" cx="192.624" cy="130.336" r="1.504"/>
	<circle style="fill:#F9C430;" cx="203.664" cy="130.336" r="1.496"/>
	<circle style="fill:#F9C430;" cx="214.664" cy="130.336" r="1.504"/>
	<circle style="fill:#F9C430;" cx="225.664" cy="130.336" r="1.504"/>
	<circle style="fill:#F9C430;" cx="236.664" cy="130.336" r="1.504"/>
	<circle style="fill:#F9C430;" cx="247.664" cy="130.336" r="1.496"/>
	<circle style="fill:#F9C430;" cx="258.664" cy="130.336" r="1.504"/>
	<circle style="fill:#F9C430;" cx="269.664" cy="130.336" r="1.504"/>
	<circle style="fill:#F9C430;" cx="280.624" cy="130.336" r="1.504"/>
	<circle style="fill:#F9C430;" cx="291.664" cy="130.336" r="1.496"/>
	<circle style="fill:#F9C430;" cx="302.664" cy="130.336" r="1.504"/>
	<circle style="fill:#F9C430;" cx="313.664" cy="130.336" r="1.504"/>
	<circle style="fill:#F9C430;" cx="324.664" cy="130.336" r="1.504"/>
	<circle style="fill:#F9C430;" cx="335.664" cy="130.336" r="1.496"/>
</g>
<g>
</g>
<g>
</g>
<g>
</g>
<g>
</g>
<g>
</g>
<g>
</g>
<g>
</g>
<g>
</g>
<g>
</g>
<g>
</g>
<g>
</g>
<g>
</g>
<g>
</g>
<g>
</g>
<g>
</g>
</svg>
