<?xml version="1.0" encoding="iso-8859-1"?>
<!-- Generator: Adobe Illustrator 19.1.0, SVG Export Plug-In . SVG Version: 6.00 Build 0)  -->
<svg version="1.1" id="Capa_1" xmlns="http://www.w3.org/2000/svg" xmlns:xlink="http://www.w3.org/1999/xlink" x="0px" y="0px"
	 viewBox="0 0 399.469 399.469" style="enable-background:new 0 0 399.469 399.469;" xml:space="preserve">
<g>
	<polygon style="fill:#AB9E85;" points="44.338,372.77 75.403,379.369 80.342,361.526 45.607,353.934 	"/>
	<path style="fill:#C7BEA8;" d="M46.174,343.82l36.741,8.031c3.215-12.983,12.143-51.32,15.673-89.912V122.937L83.76,73.926
		C74.028,107.915,52.274,198.266,46.174,343.82z"/>
	<path style="fill:#C7BEA8;" d="M147.501,43.848c-5.911-7.67-9.513-15.268-11.471-20.181l-34.071,15.188
		c-1.092,0.615-10.01,5.958-12.966,17.837l19.381,64.058c0.142,0.469,0.214,0.957,0.214,1.448v253.027
		c2.909,2.723,18.821,13.703,86.147,14.223V69.865C175.779,68.359,159.523,59.444,147.501,43.848z"/>
	<path style="fill:#C7BEA8;" d="M204.734,49.255v10.59c32.693-2.984,45.998-30.674,49.772-40.724l-9.788-5.852
		C240.697,31.533,223.871,46.924,204.734,49.255z"/>
	<path style="fill:#C7BEA8;" d="M315.711,73.916l-14.83,49.021V261.94c3.529,38.592,12.457,76.929,15.672,89.912l36.739-8.031
		C347.188,198.12,325.442,107.864,315.711,73.916z"/>
	<polygon style="fill:#AB9E85;" points="319.127,361.526 324.066,379.369 355.13,372.77 353.86,353.934 	"/>
	<path style="fill:#C7BEA8;" d="M297.51,38.856l-34.071-15.188c-1.958,4.913-5.56,12.512-11.472,20.181
		c-12.021,15.596-28.278,24.51-47.232,26.017v319.584c67.334-0.52,83.237-11.501,86.146-14.225V122.197
		c0-0.491,0.072-0.979,0.214-1.448l19.379-64.058C307.513,44.794,298.554,39.443,297.51,38.856z"/>
	<path style="fill:#C7BEA8;" d="M154.75,13.27l-9.788,5.852c3.775,10.049,17.078,37.74,49.773,40.724V49.243
		C175.598,46.912,158.772,31.533,154.75,13.27z"/>
	<path style="fill:#AB9E85;" d="M233.714,15.266h-67.96c5.008,13.463,19.165,24.294,33.98,24.294
		C214.549,39.56,228.707,28.729,233.714,15.266z"/>
	<path style="fill:#3F352F;" d="M320.451,55.476c-3.853-17.753-17.817-25.229-18.414-25.541
		c-0.091-0.047-39.203-17.486-39.203-17.486l-19.638-11.74c-1.544-0.924-3.467-0.945-5.032-0.058C236.597,1.539,235.63,3.2,235.63,5
		c0,0.089-0.007,0.177-0.008,0.266h-71.775c-0.001-0.089-0.008-0.177-0.008-0.266c0-1.8-0.967-3.461-2.533-4.349
		c-1.565-0.887-3.487-0.867-5.032,0.058l-19.638,11.74L97.708,29.801c-0.094,0.042-14.835,7.921-18.691,25.672
		c-2.13,6.083-35.574,104.46-43.001,292.06l-1.945,28.891c-0.167,2.482,1.516,4.709,3.95,5.227c0,0,40.607,8.588,40.951,8.588
		c2.203,0,4.205-1.464,4.815-3.667l7.604-27.468c0.002-0.008,3.386-12.783,7.199-31.342v49.141c0,0.613,0.113,1.223,0.333,1.795
		c1.874,4.873,14.681,20.771,100.814,20.771s98.94-15.898,100.813-20.771c0.22-0.572,0.333-1.182,0.333-1.795v-49.137
		c3.812,18.557,7.193,31.309,7.195,31.316c0.002,0.006,7.607,27.489,7.607,27.489c0.61,2.204,2.612,3.667,4.815,3.667
		c0.344,0,40.951-8.588,40.951-8.588c2.434-0.518,4.117-2.745,3.95-5.228l-1.947-28.891
		C356.027,159.959,322.59,61.583,320.451,55.476z M244.719,13.27l9.788,5.852c-3.775,10.049-17.08,37.74-49.772,40.724v-10.59
		C223.871,46.924,240.697,31.533,244.719,13.27z M75.403,379.369l-31.065-6.6l1.269-18.836l34.735,7.592L75.403,379.369z
		 M98.588,261.94c-3.53,38.592-12.457,76.929-15.673,89.912l-36.741-8.031c6.1-145.555,27.854-235.905,37.585-269.894l14.828,49.011
		V261.94z M194.734,389.447c-67.325-0.52-83.237-11.5-86.147-14.223V122.197c0-0.491-0.072-0.979-0.214-1.448L88.993,56.692
		c2.956-11.879,11.874-17.222,12.966-17.837l34.071-15.188c1.958,4.913,5.56,12.512,11.471,20.181
		c12.021,15.596,28.278,24.51,47.233,26.017V389.447z M194.734,59.845c-32.695-2.984-45.998-30.674-49.773-40.724l9.788-5.852
		c4.022,18.263,20.848,33.642,39.985,35.973V59.845z M165.754,15.266h67.96c-5.008,13.463-19.165,24.294-33.98,24.294
		C184.92,39.56,170.762,28.729,165.754,15.266z M291.095,120.75c-0.142,0.469-0.214,0.957-0.214,1.448v253.027
		c-2.909,2.724-18.812,13.705-86.146,14.225V69.865c18.954-1.507,35.211-10.421,47.232-26.017
		c5.911-7.669,9.514-15.268,11.472-20.181l34.071,15.188c1.044,0.587,10.003,5.938,12.964,17.836L291.095,120.75z M316.553,351.852
		c-3.215-12.983-12.143-51.32-15.672-89.912V122.937l14.83-49.021c9.731,33.948,31.477,124.204,37.581,269.905L316.553,351.852z
		 M324.066,379.369l-4.939-17.844l34.734-7.592l1.269,18.836L324.066,379.369z"/>
</g>
<g>
</g>
<g>
</g>
<g>
</g>
<g>
</g>
<g>
</g>
<g>
</g>
<g>
</g>
<g>
</g>
<g>
</g>
<g>
</g>
<g>
</g>
<g>
</g>
<g>
</g>
<g>
</g>
<g>
</g>
</svg>
