<?xml version="1.0" encoding="iso-8859-1"?>
<!-- Generator: Adobe Illustrator 19.0.0, SVG Export Plug-In . SVG Version: 6.00 Build 0)  -->
<svg version="1.1" id="Layer_1" xmlns="http://www.w3.org/2000/svg" xmlns:xlink="http://www.w3.org/1999/xlink" x="0px" y="0px"
	 viewBox="0 0 501.89 501.89" style="enable-background:new 0 0 501.89 501.89;" xml:space="preserve">
<polygon style="fill:#6965A8;" points="56.29,457.775 41.89,457.775 5.89,81.775 63.49,81.775 "/>
<path style="fill:#F15249;" d="M376.29,328.975c-36,0-56.8-16-68.8-5.6c-29.6-23.2-63.2-50.4-95.2-82.4
	c-106.4-106.4-156-228-199.2-185.6c-43.2,43.2,25.6,136,132,242.4c68,68,50.4,156.8,179.2,156.8c4,0,8-0.8,12,0
	c6.4,0.8,13.6,1.6,19.2,1.6c1.6,0,3.2,0,4.8,0c77.6,0,140.8,0.8,140.8-42.4C501.89,370.575,453.89,328.975,376.29,328.975z"/>
<path style="fill:#E24542;" d="M325.09,451.375c4,0.8,8,1.6,12,2.4c6.4,0.8,13.6,1.6,19.2,1.6c1.6,0,3.2,0,4.8,0
	c77.6,0,140.8,0.8,140.8-42.4s-48-84.8-125.6-84.8c-36,0-56.8-16-68.8-5.6c-29.6-23.2-63.2-50.4-95.2-82.4
	c-106.4-105.6-156-227.2-199.2-184.8"/>
<path style="fill:#C93131;" d="M201.09,172.975c9.6,10.4,92,92.8,100.8,103.2c62.4,72.8,46.4,52.8,12.8,76.8
	c-16.8,12-92-42.4-170.4-127.2s-129.6-164.8-113.6-179.2C46.69,31.375,122.69,88.175,201.09,172.975z"/>
<g>
</g>
<g>
</g>
<g>
</g>
<g>
</g>
<g>
</g>
<g>
</g>
<g>
</g>
<g>
</g>
<g>
</g>
<g>
</g>
<g>
</g>
<g>
</g>
<g>
</g>
<g>
</g>
<g>
</g>
</svg>
