<?xml version="1.0" encoding="iso-8859-1"?>
<!-- Generator: Adobe Illustrator 19.0.0, SVG Export Plug-In . SVG Version: 6.00 Build 0)  -->
<svg version="1.1" id="Layer_1" xmlns="http://www.w3.org/2000/svg" xmlns:xlink="http://www.w3.org/1999/xlink" x="0px" y="0px"
	 viewBox="0 0 512 512" style="enable-background:new 0 0 512 512;" xml:space="preserve">
<path style="fill:#F95428;" d="M256.003,174.583v283.43H152.015c-25.542,0-46.243-20.714-46.243-46.243v-17.236h6.331
	c9.21,0,16.688-7.465,16.688-16.688V227.603c0-20.459-8.127-75.95-22.586-90.409L58.001,88.99c0.752-0.815,1.541-1.631,2.331-2.42
	c17.516-17.516,41.708-28.357,68.459-28.357h62.982c0.191,0.79,0.395,1.592,0.637,2.382l4.701,15.771l20.854,69.886
	C222.984,163.067,238.449,174.583,256.003,174.583z"/>
<path style="fill:#E54728;" d="M106.205,137.194L58.001,88.99c0.752-0.815,1.541-1.631,2.331-2.42
	c17.516-17.516,41.708-28.357,68.459-28.357h38.765C167.556,58.212,104.09,72.62,106.205,137.194z"/>
<path style="fill:#CC3723;" d="M314.883,76.365l-20.854,69.886c-2.51,8.408-7.631,15.491-14.319,20.472
	c-6.688,4.981-14.943,7.86-23.707,7.86c-17.554,0-33.02-11.516-38.039-28.332l-20.854-69.886h0.013
	c6.956-10.777,19.058-18.153,33.313-18.153h51.122C295.825,58.212,307.927,65.588,314.883,76.365z"/>
<g>
	<path style="fill:#F7B239;" d="M316.743,229.501c14.026,0,25.389,11.376,25.389,25.389c0,14.026-11.363,25.389-25.389,25.389
		s-25.389-11.363-25.389-25.389C291.354,240.877,302.717,229.501,316.743,229.501z"/>
	<path style="fill:#F7B239;" d="M480.019,155.041v222.805c0,9.223-7.478,16.688-16.688,16.688h-57.109h-6.344
		c-9.21,0-16.688-7.465-16.688-16.688v-19.402V227.603c0-20.459,8.127-75.95,22.586-90.409l48.217-48.217
		C470.146,106.276,480.019,129.487,480.019,155.041z"/>
</g>
<path style="fill:#E09B2D;" d="M416.242,377.847v-19.402V227.603c0-20.459,8.128-75.95,22.586-90.409l29.07-29.07
	c-3.855-6.947-8.522-13.381-13.906-19.147l-48.217,48.217c-14.459,14.459-22.586,69.95-22.586,90.409v130.842v19.402
	c0,9.223,7.478,16.688,16.688,16.688h6.344h26.709C423.72,394.535,416.242,387.07,416.242,377.847z"/>
<g>
	<polygon style="fill:#F95428;" points="463.331,394.535 463.331,426.28 406.222,426.28 406.222,411.771 406.222,394.535 	"/>
	<path style="fill:#F95428;" d="M383.189,358.445v19.402c0,9.223,7.478,16.688,16.688,16.688h6.344v17.236
		c0,25.529-20.701,46.243-46.243,46.243H256.003v-283.43c8.764,0,17.019-2.879,23.707-7.86c6.688-4.981,11.809-12.064,14.319-20.472
		l20.854-69.886l4.713-15.771c0.242-0.79,0.446-1.592,0.637-2.382h62.956c27.949,0,53.134,11.835,70.803,30.765l-48.217,48.217
		c-14.459,14.459-22.586,69.95-22.586,90.409L383.189,358.445L383.189,358.445z M342.132,254.89
		c0-14.013-11.363-25.389-25.389-25.389s-25.389,11.376-25.389,25.389c0,14.026,11.363,25.389,25.389,25.389
		C330.768,280.279,342.132,268.915,342.132,254.89z"/>
	<polygon style="fill:#F95428;" points="359.979,458.013 359.979,502.447 152.015,502.447 152.015,458.013 256.003,458.013 	"/>
</g>
<polygon style="fill:#E54728;" points="194.303,458.013 194.303,502.447 152.015,502.447 152.015,458.013 173.16,458.013 "/>
<g>
	<path style="fill:#F7B239;" d="M320.233,58.212c-0.191,0.79-0.395,1.592-0.637,2.382l-4.713,15.771
		c-6.956-10.777-19.058-18.153-33.325-18.153h-51.122c-14.255,0-26.357,7.376-33.313,18.153h-0.013l-4.701-15.771
		c-0.242-0.79-0.446-1.592-0.637-2.382c-5.758-24.637,12.93-48.663,38.663-48.663h51.122
		C307.29,9.549,325.991,33.575,320.233,58.212z"/>
	<path style="fill:#F7B239;" d="M128.791,358.445v19.402c0,9.223-7.478,16.688-16.688,16.688h-6.331H48.663
		c-9.21,0-16.688-7.478-16.688-16.688V155.041c0-25.542,9.885-48.752,26.026-66.052l48.204,48.204
		c14.459,14.459,22.586,69.95,22.586,90.409V358.445z"/>
</g>
<path style="fill:#E09B2D;" d="M62.445,377.847V155.041c0-17.705,4.757-34.286,13.049-48.559L58.001,88.99
	c-16.14,17.3-26.026,40.51-26.026,66.052v222.805c0,9.21,7.478,16.688,16.688,16.688h30.472
	C69.923,394.535,62.445,387.057,62.445,377.847z"/>
<polygon style="fill:#F95428;" points="105.772,411.771 105.772,426.28 48.663,426.28 48.663,394.535 105.772,394.535 "/>
<g>
	<path style="fill:#FFFFFF;" d="M404.38,103.108c-1.028,0-2.071-0.167-3.098-0.518c-5.764-1.975-11.852-2.976-18.093-2.976h-37.937
		c-5.278,0-9.554-4.278-9.554-9.554s4.276-9.554,9.554-9.554h37.937c8.353,0,16.524,1.349,24.286,4.008
		c4.992,1.71,7.652,7.143,5.941,12.135C412.059,100.614,408.35,103.108,404.38,103.108z"/>
	<path style="fill:#FFFFFF;" d="M452.254,371.825c-5.278,0-9.554-4.278-9.554-9.554v-177.7c0-5.276,4.276-9.554,9.554-9.554
		s9.554,4.278,9.554,9.554v177.7C461.808,367.547,457.532,371.825,452.254,371.825z"/>
	<circle style="fill:#FFFFFF;" cx="452.259" cy="154.002" r="9.554"/>
</g>
<g>
	<path style="fill:#333333;" d="M460.975,82.458L460.975,82.458C440.92,60.979,412.569,48.66,383.193,48.66h-52.366
		c-0.093-10.268-3.42-20.303-9.782-28.841C311.66,7.223,297.269,0,281.561,0h-51.125c-15.708,0-30.1,7.224-39.485,19.819
		c-6.361,8.538-9.689,18.573-9.781,28.84h-52.38c-28.413,0-55.123,11.064-75.212,31.152c-0.953,0.954-1.837,1.875-2.554,2.661
		c-18.442,19.747-28.598,45.518-28.598,72.565v222.81c0,11.094,6.931,20.58,16.682,24.413v24.016c0,5.276,4.276,9.554,9.554,9.554
		h53.013c7.677,15.998,22.763,27.779,40.783,30.902v35.713c0,5.277,4.276,9.554,9.554,9.554H359.98c5.278,0,9.554-4.278,9.554-9.554
		v-35.714c18.016-3.125,33.1-14.906,40.776-30.901h53.018c5.278,0,9.554-4.278,9.554-9.554v-24.012
		c9.754-3.831,16.691-13.319,16.691-24.416V155.038C489.572,127.98,479.416,102.204,460.975,82.458z M470.463,155.038v222.81
		c0,3.933-3.2,7.134-7.134,7.134h-0.003H406.22h-6.339c-3.934,0-7.134-3.2-7.134-7.134V227.604c0-8.944,1.773-26.991,5.665-45.486
		c5.948-28.263,12.312-36.36,14.121-38.169l40.827-40.827C464.449,118.072,470.463,136.175,470.463,155.038z M255.999,165.033
		c-13.221,0-25.093-8.847-28.874-21.516l-19.484-65.294c5.675-6.606,13.93-10.456,22.799-10.456h51.12
		c8.868,0,17.122,3.85,22.799,10.456l-19.484,65.293C281.093,156.185,269.22,165.033,255.999,165.033z M206.274,31.237
		c5.743-7.708,14.549-12.129,24.162-12.129h51.125c9.612,0,18.418,4.42,24.162,12.128c5.743,7.707,7.46,17.41,4.712,26.621
		l-0.036,0.12c-8.256-5.981-18.284-9.317-28.841-9.317h-51.12c-10.558,0-20.586,3.335-28.841,9.316l-0.036-0.118
		C198.814,48.648,200.531,38.944,206.274,31.237z M41.533,155.038c0-18.833,6.001-36.91,17.108-51.897L99.45,143.95
		c1.809,1.809,8.172,9.906,14.12,38.169c3.893,18.493,5.665,36.542,5.665,45.486v150.244c0,3.933-3.2,7.134-7.133,7.134h-6.335
		h-57.1c-3.934,0-7.134-3.2-7.134-7.134V155.038z M96.214,416.722H58.215V404.09h37.999v7.683V416.722z M115.322,411.773v-7.902
		c12.953-1.595,23.021-12.646,23.021-26.023v-14.029l26.797-16.315c4.507-2.744,5.936-8.623,3.192-13.13
		c-2.745-4.507-8.626-5.934-13.13-3.192l-16.859,10.265V227.604c0-19.77-7.805-79.588-25.381-97.166L71.62,89.095
		c15.863-13.798,35.937-21.328,57.169-21.328h55.79l24.236,81.212c5.248,17.59,20.047,30.667,37.63,34.202v265.276h-94.434h-0.003
		C131.78,448.459,115.322,432.002,115.322,411.773z M350.425,492.892h-188.86v-25.324h188.86V492.892z M359.975,448.459h-94.422
		V183.183c17.582-3.535,32.381-16.612,37.63-34.202l24.236-81.212h55.775c21.352,0,41.339,7.51,57.182,21.316l-41.352,41.353
		c-17.579,17.577-25.384,77.396-25.384,97.166v113.842l-16.859-10.265c-4.507-2.743-10.385-1.315-13.13,3.192
		c-2.745,4.507-1.315,10.385,3.192,13.13l26.797,16.315v14.029c0,13.377,10.069,24.427,23.021,26.023v7.902
		C396.661,432.002,380.203,448.459,359.975,448.459z M453.774,416.722h-37.999V404.09h37.999V416.722z"/>
	<path style="fill:#333333;" d="M316.741,219.951c-19.268,0-34.944,15.677-34.944,34.944s15.677,34.944,34.944,34.944
		c19.268,0,34.944-15.675,34.944-34.944S336.009,219.951,316.741,219.951z M316.741,270.731c-8.731,0-15.836-7.103-15.836-15.836
		c0-8.733,7.103-15.836,15.836-15.836c8.733,0,15.836,7.105,15.836,15.836S325.474,270.731,316.741,270.731z"/>
</g>
<g>
</g>
<g>
</g>
<g>
</g>
<g>
</g>
<g>
</g>
<g>
</g>
<g>
</g>
<g>
</g>
<g>
</g>
<g>
</g>
<g>
</g>
<g>
</g>
<g>
</g>
<g>
</g>
<g>
</g>
</svg>
